<?xml version="1.0" encoding="UTF-8" standalone="no"?>
<svg version="1.1" xmlns="http://www.w3.org/2000/svg" xmlns:xlink="http://www.w3.org/1999/xlink" width="133.333" height="133.333">
	<g id="dp_dp001" transform="matrix(1,0,0,1,-405.063,-355.3)">
		<path id="dp_path002" fill="white" fill-rule="evenodd" stroke="none" stroke-width="0" d="M 418.585,393.825 L 526.411,393.825 L 526.411,448.707 L 418.585,448.707 Z "/>
		<path id="dp_path003" fill="#453d3d" fill-rule="evenodd" stroke="none" stroke-width="0" d="M 460.584,415.335 C 452.183,415.551 452.483,424.077 452.483,424.077 C 452.483,424.077 452.345,432.929 460.599,432.829 C 468.848,432.723 468.716,424.257 468.716,424.257 C 468.716,424.257 468.991,415.112 460.584,415.335"/>
		<path id="dp_path004" fill="#453d3d" fill-rule="evenodd" stroke="none" stroke-width="0" d="M 487.276,424.623 C 487.276,424.623 478.872,424.353 479.2,428.832 C 479.508,433.025 484.756,433.019 484.756,433.019 C 494.175,433.141 493.213,424.617 493.213,424.617 Z "/>
		<path id="dp_path005" fill="#453d3d" fill-rule="evenodd" stroke="none" stroke-width="0" d="M 434.331,415.249 C 426.853,415.249 426.483,421.879 426.483,421.879 L 441.775,421.879 C 441.775,421.879 441.775,415.249 434.331,415.249"/>
		<path id="dp_path006" fill="#453d3d" fill-rule="evenodd" stroke="none" stroke-width="0" d="M 508.868,444.26 L 502.989,444.26 L 507.647,435.483 L 495.581,412.669 L 501.657,412.669 L 510.545,430.391 L 519.455,412.669 L 524.949,412.669 Z M 493.736,435.509 L 493.52,432.279 C 491.463,434.88 488.701,436.329 483.853,436.356 C 479.009,436.387 472.819,434.22 473.881,427.283 C 473.887,427.225 473.901,427.171 473.913,427.113 C 472.623,433.141 467.705,436.356 461.689,436.356 C 454.751,436.356 452.377,432.453 452.377,432.453 L 452.159,435.557 L 447.072,435.557 C 447.275,433.432 447.301,430.212 447.301,430.212 L 447.284,424.987 C 447.269,425.288 447.252,425.464 447.252,425.464 L 426.308,425.464 C 426.308,425.464 426.6,432.787 434.161,432.929 C 440.041,433.035 441.097,428.947 441.097,428.947 L 446.537,428.937 C 446.537,428.937 445.959,436.356 434.139,436.356 C 420.385,436.356 421.023,424.532 421.023,424.532 C 420.957,421.905 421.459,411.792 434.457,411.792 C 445.364,411.792 447.084,419.653 447.279,423.455 L 447.215,402.591 L 452.452,402.591 L 452.452,415.663 C 452.452,415.663 455.264,411.753 461.799,411.792 C 468.335,411.829 474.389,416.245 474.247,424.168 C 474.231,425.109 474.135,426.003 473.971,426.837 C 475.272,421.435 484.424,421.144 487.095,421.128 C 488.613,421.123 493.164,421.112 493.164,421.112 C 493.191,417.904 492.224,415.304 486.909,415.203 C 481.3,415.097 480.871,418.781 480.871,418.781 L 475.341,418.781 C 476.461,410.736 487.276,411.719 487.276,411.719 C 498.559,412.184 498.309,418.48 498.447,421.089 C 498.564,423.337 498.459,426.531 498.447,430.1 C 498.432,433.676 498.559,435.483 498.559,435.483 Z M 471.729,355.3 C 434.912,355.3 405.063,385.137 405.063,421.957 C 405.063,458.775 434.912,488.624 471.729,488.624 C 508.547,488.624 538.396,458.775 538.396,421.957 C 538.396,385.137 508.547,355.3 471.729,355.3 Z "/>
	</g>
</svg>