<?xml version="1.0" encoding="UTF-8" standalone="no"?>
<svg version="1.1" xmlns="http://www.w3.org/2000/svg" xmlns:xlink="http://www.w3.org/1999/xlink" width="133.333" height="133.333">
	<g id="dp_dp001" transform="matrix(1,0,0,1,-263.911,-48.1707)">
		<path id="dp_path002" fill="#453d3d" fill-rule="evenodd" stroke="none" stroke-width="0" d="M 397.244,114.837 C 397.244,151.659 367.397,181.504 330.577,181.504 C 293.759,181.504 263.911,151.659 263.911,114.837 C 263.911,78.02 293.759,48.1707 330.577,48.1707 C 367.397,48.1707 397.244,78.02 397.244,114.837"/>
		<path id="dp_path003" fill="white" fill-rule="evenodd" stroke="none" stroke-width="0" d="M 330.577,63.8387 L 328.355,70.68 L 331.776,71.792 Z "/>
		<path id="dp_path004" fill="white" fill-rule="evenodd" stroke="none" stroke-width="0" d="M 330.577,63.8387 L 332.8,70.68 L 329.38,71.792 Z "/>
		<path id="dp_path005" fill="white" fill-rule="evenodd" stroke="none" stroke-width="0" d="M 337.417,68.8093 L 330.225,68.8093 L 330.225,72.4067 Z "/>
		<path id="dp_path006" fill="white" fill-rule="evenodd" stroke="none" stroke-width="0" d="M 337.417,68.8093 L 331.599,73.0373 L 329.485,70.128 Z "/>
		<path id="dp_path007" fill="white" fill-rule="evenodd" stroke="none" stroke-width="0" d="M 334.805,76.852 L 332.584,70.0093 L 329.163,71.1213 Z "/>
		<path id="dp_path008" fill="white" fill-rule="evenodd" stroke="none" stroke-width="0" d="M 334.805,76.852 L 328.987,72.624 L 331.1,69.7133 Z "/>
		<path id="dp_path009" fill="white" fill-rule="evenodd" stroke="none" stroke-width="0" d="M 323.736,68.8093 L 330.929,68.8093 L 330.929,72.4067 Z "/>
		<path id="dp_path010" fill="white" fill-rule="evenodd" stroke="none" stroke-width="0" d="M 323.736,68.8093 L 329.556,73.0373 L 331.669,70.128 Z "/>
		<path id="dp_path011" fill="white" fill-rule="evenodd" stroke="none" stroke-width="0" d="M 326.349,76.852 L 328.572,70.0093 L 331.993,71.1213 Z "/>
		<path id="dp_path012" fill="white" fill-rule="evenodd" stroke="none" stroke-width="0" d="M 326.349,76.852 L 332.169,72.624 L 330.055,69.7133 Z "/>
		<path id="dp_path013" fill="white" fill-rule="evenodd" stroke="none" stroke-width="0" d="M 330.577,150.157 L 328.355,156.999 L 331.776,158.111 Z "/>
		<path id="dp_path014" fill="white" fill-rule="evenodd" stroke="none" stroke-width="0" d="M 330.577,150.157 L 332.8,156.999 L 329.38,158.111 Z "/>
		<path id="dp_path015" fill="white" fill-rule="evenodd" stroke="none" stroke-width="0" d="M 337.417,155.128 L 330.225,155.128 L 330.225,158.724 Z "/>
		<path id="dp_path016" fill="white" fill-rule="evenodd" stroke="none" stroke-width="0" d="M 337.417,155.128 L 331.599,159.356 L 329.485,156.445 Z "/>
		<path id="dp_path017" fill="white" fill-rule="evenodd" stroke="none" stroke-width="0" d="M 334.805,163.169 L 332.584,156.329 L 329.163,157.44 Z "/>
		<path id="dp_path018" fill="white" fill-rule="evenodd" stroke="none" stroke-width="0" d="M 334.805,163.169 L 328.987,158.941 L 331.1,156.032 Z "/>
		<path id="dp_path019" fill="white" fill-rule="evenodd" stroke="none" stroke-width="0" d="M 323.736,155.128 L 330.929,155.128 L 330.929,158.724 Z "/>
		<path id="dp_path020" fill="white" fill-rule="evenodd" stroke="none" stroke-width="0" d="M 323.736,155.128 L 329.556,159.356 L 331.669,156.445 Z "/>
		<path id="dp_path021" fill="white" fill-rule="evenodd" stroke="none" stroke-width="0" d="M 326.349,163.169 L 328.572,156.329 L 331.993,157.44 Z "/>
		<path id="dp_path022" fill="white" fill-rule="evenodd" stroke="none" stroke-width="0" d="M 326.349,163.169 L 332.169,158.941 L 330.055,156.032 Z "/>
		<path id="dp_path023" fill="white" fill-rule="evenodd" stroke="none" stroke-width="0" d="M 287.419,106.997 L 285.195,113.839 L 288.616,114.951 Z "/>
		<path id="dp_path024" fill="white" fill-rule="evenodd" stroke="none" stroke-width="0" d="M 287.419,106.997 L 289.641,113.839 L 286.22,114.951 Z "/>
		<path id="dp_path025" fill="white" fill-rule="evenodd" stroke="none" stroke-width="0" d="M 294.26,111.968 L 287.067,111.968 L 287.067,115.564 Z "/>
		<path id="dp_path026" fill="white" fill-rule="evenodd" stroke="none" stroke-width="0" d="M 294.26,111.968 L 288.441,116.196 L 286.327,113.287 Z "/>
		<path id="dp_path027" fill="white" fill-rule="evenodd" stroke="none" stroke-width="0" d="M 291.647,120.009 L 289.423,113.169 L 286.003,114.28 Z "/>
		<path id="dp_path028" fill="white" fill-rule="evenodd" stroke="none" stroke-width="0" d="M 291.647,120.009 L 285.827,115.783 L 287.941,112.873 Z "/>
		<path id="dp_path029" fill="white" fill-rule="evenodd" stroke="none" stroke-width="0" d="M 280.577,111.968 L 287.771,111.968 L 287.771,115.564 Z "/>
		<path id="dp_path030" fill="white" fill-rule="evenodd" stroke="none" stroke-width="0" d="M 280.577,111.968 L 286.396,116.196 L 288.511,113.287 Z "/>
		<path id="dp_path031" fill="white" fill-rule="evenodd" stroke="none" stroke-width="0" d="M 283.191,120.009 L 285.413,113.169 L 288.835,114.28 Z "/>
		<path id="dp_path032" fill="white" fill-rule="evenodd" stroke="none" stroke-width="0" d="M 283.191,120.009 L 289.009,115.783 L 286.896,112.873 Z "/>
		<path id="dp_path033" fill="white" fill-rule="evenodd" stroke="none" stroke-width="0" d="M 304.769,82.6333 L 310.589,78.4067 L 308.475,75.496 Z "/>
		<path id="dp_path034" fill="white" fill-rule="evenodd" stroke="none" stroke-width="0" d="M 304.769,82.6333 L 306.993,75.792 L 310.413,76.904 Z "/>
		<path id="dp_path035" fill="white" fill-rule="evenodd" stroke="none" stroke-width="0" d="M 302.156,74.5907 L 307.976,78.82 L 310.091,75.9093 Z "/>
		<path id="dp_path036" fill="white" fill-rule="evenodd" stroke="none" stroke-width="0" d="M 302.156,74.5907 L 309.349,74.5907 L 309.349,78.188 Z "/>
		<path id="dp_path037" fill="white" fill-rule="evenodd" stroke="none" stroke-width="0" d="M 308.997,69.62 L 306.775,76.4613 L 310.196,77.5733 Z "/>
		<path id="dp_path038" fill="white" fill-rule="evenodd" stroke="none" stroke-width="0" d="M 308.997,69.62 L 311.221,76.4613 L 307.8,77.5733 Z "/>
		<path id="dp_path039" fill="white" fill-rule="evenodd" stroke="none" stroke-width="0" d="M 313.225,82.6333 L 307.407,78.4067 L 309.52,75.496 Z "/>
		<path id="dp_path040" fill="white" fill-rule="evenodd" stroke="none" stroke-width="0" d="M 313.225,82.6333 L 311.003,75.792 L 307.584,76.904 Z "/>
		<path id="dp_path041" fill="white" fill-rule="evenodd" stroke="none" stroke-width="0" d="M 315.839,74.5907 L 310.019,78.82 L 307.905,75.9093 Z "/>
		<path id="dp_path042" fill="white" fill-rule="evenodd" stroke="none" stroke-width="0" d="M 315.839,74.5907 L 308.645,74.5907 L 308.645,78.188 Z "/>
		<path id="dp_path043" fill="white" fill-rule="evenodd" stroke="none" stroke-width="0" d="M 297.429,98.4307 L 295.205,91.5893 L 291.785,92.7 Z "/>
		<path id="dp_path044" fill="white" fill-rule="evenodd" stroke="none" stroke-width="0" d="M 297.429,98.4307 L 291.609,94.2027 L 293.723,91.2933 Z "/>
		<path id="dp_path045" fill="white" fill-rule="evenodd" stroke="none" stroke-width="0" d="M 288.972,98.4307 L 294.792,94.2027 L 292.677,91.2933 Z "/>
		<path id="dp_path046" fill="white" fill-rule="evenodd" stroke="none" stroke-width="0" d="M 288.972,98.4307 L 291.195,91.5893 L 294.616,92.7 Z "/>
		<path id="dp_path047" fill="white" fill-rule="evenodd" stroke="none" stroke-width="0" d="M 286.36,90.3893 L 292.179,94.6173 L 294.293,91.7067 Z "/>
		<path id="dp_path048" fill="white" fill-rule="evenodd" stroke="none" stroke-width="0" d="M 286.36,90.3893 L 293.553,90.3893 L 293.553,93.9853 Z "/>
		<path id="dp_path049" fill="white" fill-rule="evenodd" stroke="none" stroke-width="0" d="M 300.041,90.3893 L 294.221,94.6173 L 292.108,91.7067 Z "/>
		<path id="dp_path050" fill="white" fill-rule="evenodd" stroke="none" stroke-width="0" d="M 300.041,90.3893 L 292.849,90.3893 L 292.849,93.9853 Z "/>
		<path id="dp_path051" fill="white" fill-rule="evenodd" stroke="none" stroke-width="0" d="M 293.2,85.4173 L 295.423,92.26 L 292.003,93.3707 Z "/>
		<path id="dp_path052" fill="white" fill-rule="evenodd" stroke="none" stroke-width="0" d="M 293.2,85.4173 L 290.977,92.26 L 294.399,93.3707 Z "/>
		<path id="dp_path053" fill="white" fill-rule="evenodd" stroke="none" stroke-width="0" d="M 300.041,133.547 L 292.849,133.547 L 292.849,137.145 Z "/>
		<path id="dp_path054" fill="white" fill-rule="evenodd" stroke="none" stroke-width="0" d="M 300.041,133.547 L 294.221,137.776 L 292.108,134.865 Z "/>
		<path id="dp_path055" fill="white" fill-rule="evenodd" stroke="none" stroke-width="0" d="M 297.429,141.591 L 295.205,134.749 L 291.785,135.861 Z "/>
		<path id="dp_path056" fill="white" fill-rule="evenodd" stroke="none" stroke-width="0" d="M 297.429,141.591 L 291.609,137.361 L 293.723,134.452 Z "/>
		<path id="dp_path057" fill="white" fill-rule="evenodd" stroke="none" stroke-width="0" d="M 288.972,141.591 L 294.792,137.361 L 292.677,134.452 Z "/>
		<path id="dp_path058" fill="white" fill-rule="evenodd" stroke="none" stroke-width="0" d="M 288.972,141.591 L 291.195,134.749 L 294.616,135.861 Z "/>
		<path id="dp_path059" fill="white" fill-rule="evenodd" stroke="none" stroke-width="0" d="M 293.2,128.577 L 295.423,135.419 L 292.003,136.529 Z "/>
		<path id="dp_path060" fill="white" fill-rule="evenodd" stroke="none" stroke-width="0" d="M 293.2,128.577 L 290.977,135.419 L 294.399,136.529 Z "/>
		<path id="dp_path061" fill="white" fill-rule="evenodd" stroke="none" stroke-width="0" d="M 286.36,133.547 L 293.553,133.547 L 293.553,137.145 Z "/>
		<path id="dp_path062" fill="white" fill-rule="evenodd" stroke="none" stroke-width="0" d="M 286.36,133.547 L 292.179,137.776 L 294.293,134.865 Z "/>
		<path id="dp_path063" fill="white" fill-rule="evenodd" stroke="none" stroke-width="0" d="M 315.839,149.344 L 308.645,149.344 L 308.645,152.941 Z "/>
		<path id="dp_path064" fill="white" fill-rule="evenodd" stroke="none" stroke-width="0" d="M 315.839,149.344 L 310.019,153.573 L 307.905,150.664 Z "/>
		<path id="dp_path065" fill="white" fill-rule="evenodd" stroke="none" stroke-width="0" d="M 313.225,157.388 L 311.003,150.547 L 307.584,151.657 Z "/>
		<path id="dp_path066" fill="white" fill-rule="evenodd" stroke="none" stroke-width="0" d="M 313.225,157.388 L 307.407,153.16 L 309.52,150.249 Z "/>
		<path id="dp_path067" fill="white" fill-rule="evenodd" stroke="none" stroke-width="0" d="M 304.769,157.388 L 310.589,153.16 L 308.475,150.249 Z "/>
		<path id="dp_path068" fill="white" fill-rule="evenodd" stroke="none" stroke-width="0" d="M 304.769,157.388 L 306.993,150.547 L 310.413,151.657 Z "/>
		<path id="dp_path069" fill="white" fill-rule="evenodd" stroke="none" stroke-width="0" d="M 308.997,144.375 L 311.221,151.216 L 307.8,152.327 Z "/>
		<path id="dp_path070" fill="white" fill-rule="evenodd" stroke="none" stroke-width="0" d="M 308.997,144.375 L 306.775,151.216 L 310.196,152.327 Z "/>
		<path id="dp_path071" fill="white" fill-rule="evenodd" stroke="none" stroke-width="0" d="M 302.156,149.344 L 309.349,149.344 L 309.349,152.941 Z "/>
		<path id="dp_path072" fill="white" fill-rule="evenodd" stroke="none" stroke-width="0" d="M 302.156,149.344 L 307.976,153.573 L 310.091,150.664 Z "/>
		<path id="dp_path073" fill="white" fill-rule="evenodd" stroke="none" stroke-width="0" d="M 373.737,106.997 L 375.959,113.839 L 372.539,114.951 Z "/>
		<path id="dp_path074" fill="white" fill-rule="evenodd" stroke="none" stroke-width="0" d="M 373.737,106.997 L 371.513,113.839 L 374.936,114.951 Z "/>
		<path id="dp_path075" fill="white" fill-rule="evenodd" stroke="none" stroke-width="0" d="M 366.895,111.968 L 374.088,111.968 L 374.088,115.564 Z "/>
		<path id="dp_path076" fill="white" fill-rule="evenodd" stroke="none" stroke-width="0" d="M 366.895,111.968 L 372.716,116.196 L 374.829,113.287 Z "/>
		<path id="dp_path077" fill="white" fill-rule="evenodd" stroke="none" stroke-width="0" d="M 369.508,120.009 L 371.731,113.169 L 375.153,114.28 Z "/>
		<path id="dp_path078" fill="white" fill-rule="evenodd" stroke="none" stroke-width="0" d="M 369.508,120.009 L 375.329,115.783 L 373.213,112.873 Z "/>
		<path id="dp_path079" fill="white" fill-rule="evenodd" stroke="none" stroke-width="0" d="M 380.577,111.968 L 373.385,111.968 L 373.385,115.564 Z "/>
		<path id="dp_path080" fill="white" fill-rule="evenodd" stroke="none" stroke-width="0" d="M 380.577,111.968 L 374.759,116.196 L 372.643,113.287 Z "/>
		<path id="dp_path081" fill="white" fill-rule="evenodd" stroke="none" stroke-width="0" d="M 377.965,120.009 L 375.741,113.169 L 372.323,114.28 Z "/>
		<path id="dp_path082" fill="white" fill-rule="evenodd" stroke="none" stroke-width="0" d="M 377.965,120.009 L 372.145,115.783 L 374.257,112.873 Z "/>
		<path id="dp_path083" fill="white" fill-rule="evenodd" stroke="none" stroke-width="0" d="M 356.387,82.6333 L 350.565,78.4067 L 352.68,75.496 Z "/>
		<path id="dp_path084" fill="white" fill-rule="evenodd" stroke="none" stroke-width="0" d="M 356.387,82.6333 L 354.161,75.792 L 350.741,76.904 Z "/>
		<path id="dp_path085" fill="white" fill-rule="evenodd" stroke="none" stroke-width="0" d="M 359,74.5907 L 353.177,78.82 L 351.065,75.9093 Z "/>
		<path id="dp_path086" fill="white" fill-rule="evenodd" stroke="none" stroke-width="0" d="M 359,74.5907 L 351.805,74.5907 L 351.805,78.188 Z "/>
		<path id="dp_path087" fill="white" fill-rule="evenodd" stroke="none" stroke-width="0" d="M 352.157,69.62 L 354.381,76.4613 L 350.959,77.5733 Z "/>
		<path id="dp_path088" fill="white" fill-rule="evenodd" stroke="none" stroke-width="0" d="M 352.157,69.62 L 349.933,76.4613 L 353.356,77.5733 Z "/>
		<path id="dp_path089" fill="white" fill-rule="evenodd" stroke="none" stroke-width="0" d="M 347.929,82.6333 L 353.749,78.4067 L 351.635,75.496 Z "/>
		<path id="dp_path090" fill="white" fill-rule="evenodd" stroke="none" stroke-width="0" d="M 347.929,82.6333 L 350.153,75.792 L 353.572,76.904 Z "/>
		<path id="dp_path091" fill="white" fill-rule="evenodd" stroke="none" stroke-width="0" d="M 345.316,74.5907 L 351.135,78.82 L 353.251,75.9093 Z "/>
		<path id="dp_path092" fill="white" fill-rule="evenodd" stroke="none" stroke-width="0" d="M 345.316,74.5907 L 352.509,74.5907 L 352.509,78.188 Z "/>
		<path id="dp_path093" fill="white" fill-rule="evenodd" stroke="none" stroke-width="0" d="M 363.727,98.4307 L 365.948,91.5893 L 369.368,92.7 Z "/>
		<path id="dp_path094" fill="white" fill-rule="evenodd" stroke="none" stroke-width="0" d="M 363.727,98.4307 L 369.547,94.2027 L 367.431,91.2933 Z "/>
		<path id="dp_path095" fill="white" fill-rule="evenodd" stroke="none" stroke-width="0" d="M 372.181,98.4307 L 366.363,94.2027 L 368.476,91.2933 Z "/>
		<path id="dp_path096" fill="white" fill-rule="evenodd" stroke="none" stroke-width="0" d="M 372.181,98.4307 L 369.959,91.5893 L 366.539,92.7 Z "/>
		<path id="dp_path097" fill="white" fill-rule="evenodd" stroke="none" stroke-width="0" d="M 374.796,90.3893 L 368.975,94.6173 L 366.861,91.7067 Z "/>
		<path id="dp_path098" fill="white" fill-rule="evenodd" stroke="none" stroke-width="0" d="M 374.796,90.3893 L 367.604,90.3893 L 367.604,93.9853 Z "/>
		<path id="dp_path099" fill="white" fill-rule="evenodd" stroke="none" stroke-width="0" d="M 361.113,90.3893 L 366.932,94.6173 L 369.045,91.7067 Z "/>
		<path id="dp_path100" fill="white" fill-rule="evenodd" stroke="none" stroke-width="0" d="M 361.113,90.3893 L 368.305,90.3893 L 368.305,93.9853 Z "/>
		<path id="dp_path101" fill="white" fill-rule="evenodd" stroke="none" stroke-width="0" d="M 367.952,85.4173 L 365.731,92.26 L 369.152,93.3707 Z "/>
		<path id="dp_path102" fill="white" fill-rule="evenodd" stroke="none" stroke-width="0" d="M 367.952,85.4173 L 370.177,92.26 L 366.756,93.3707 Z "/>
		<path id="dp_path103" fill="white" fill-rule="evenodd" stroke="none" stroke-width="0" d="M 361.113,133.547 L 368.305,133.547 L 368.305,137.145 Z "/>
		<path id="dp_path104" fill="white" fill-rule="evenodd" stroke="none" stroke-width="0" d="M 361.113,133.547 L 366.932,137.776 L 369.045,134.865 Z "/>
		<path id="dp_path105" fill="white" fill-rule="evenodd" stroke="none" stroke-width="0" d="M 363.727,141.591 L 365.948,134.749 L 369.368,135.861 Z "/>
		<path id="dp_path106" fill="white" fill-rule="evenodd" stroke="none" stroke-width="0" d="M 363.727,141.591 L 369.547,137.361 L 367.431,134.452 Z "/>
		<path id="dp_path107" fill="white" fill-rule="evenodd" stroke="none" stroke-width="0" d="M 372.181,141.591 L 366.363,137.361 L 368.476,134.452 Z "/>
		<path id="dp_path108" fill="white" fill-rule="evenodd" stroke="none" stroke-width="0" d="M 372.181,141.591 L 369.959,134.749 L 366.539,135.861 Z "/>
		<path id="dp_path109" fill="white" fill-rule="evenodd" stroke="none" stroke-width="0" d="M 367.952,128.577 L 365.731,135.419 L 369.152,136.529 Z "/>
		<path id="dp_path110" fill="white" fill-rule="evenodd" stroke="none" stroke-width="0" d="M 367.952,128.577 L 370.177,135.419 L 366.756,136.529 Z "/>
		<path id="dp_path111" fill="white" fill-rule="evenodd" stroke="none" stroke-width="0" d="M 374.796,133.547 L 367.604,133.547 L 367.604,137.145 Z "/>
		<path id="dp_path112" fill="white" fill-rule="evenodd" stroke="none" stroke-width="0" d="M 374.796,133.547 L 368.975,137.776 L 366.861,134.865 Z "/>
		<path id="dp_path113" fill="white" fill-rule="evenodd" stroke="none" stroke-width="0" d="M 345.316,149.344 L 352.509,149.344 L 352.509,152.941 Z "/>
		<path id="dp_path114" fill="white" fill-rule="evenodd" stroke="none" stroke-width="0" d="M 345.316,149.344 L 351.135,153.573 L 353.251,150.664 Z "/>
		<path id="dp_path115" fill="white" fill-rule="evenodd" stroke="none" stroke-width="0" d="M 347.929,157.388 L 350.153,150.547 L 353.572,151.657 Z "/>
		<path id="dp_path116" fill="white" fill-rule="evenodd" stroke="none" stroke-width="0" d="M 347.929,157.388 L 353.749,153.16 L 351.635,150.249 Z "/>
		<path id="dp_path117" fill="white" fill-rule="evenodd" stroke="none" stroke-width="0" d="M 356.387,157.388 L 350.565,153.16 L 352.68,150.249 Z "/>
		<path id="dp_path118" fill="white" fill-rule="evenodd" stroke="none" stroke-width="0" d="M 356.387,157.388 L 354.161,150.547 L 350.741,151.657 Z "/>
		<path id="dp_path119" fill="white" fill-rule="evenodd" stroke="none" stroke-width="0" d="M 352.157,144.375 L 349.933,151.216 L 353.356,152.327 Z "/>
		<path id="dp_path120" fill="white" fill-rule="evenodd" stroke="none" stroke-width="0" d="M 352.157,144.375 L 354.381,151.216 L 350.959,152.327 Z "/>
		<path id="dp_path121" fill="white" fill-rule="evenodd" stroke="none" stroke-width="0" d="M 359,149.344 L 351.805,149.344 L 351.805,152.941 Z "/>
		<path id="dp_path122" fill="white" fill-rule="evenodd" stroke="none" stroke-width="0" d="M 359,149.344 L 353.177,153.573 L 351.065,150.664 Z "/>
	</g>
</svg>