<?xml version="1.0" encoding="UTF-8" standalone="no"?>
<svg version="1.1" xmlns="http://www.w3.org/2000/svg" xmlns:xlink="http://www.w3.org/1999/xlink" width="133.333" height="133.333">
	<g id="dp_dp001" transform="matrix(1,0,0,1,-397.817,-202.945)">
		<path id="dp_path002" fill="white" fill-rule="evenodd" stroke="none" stroke-width="0" d="M 432.144,220.788 L 495.419,220.788 L 495.419,322.803 L 432.144,322.803 Z "/>
		<path id="dp_path003" fill="#453d3d" fill-rule="evenodd" stroke="none" stroke-width="0" d="M 482.135,269.329 L 470.589,269.329 L 470.589,310.505 L 453.476,310.505 L 453.476,269.329 L 445.344,269.329 L 445.344,254.795 L 453.476,254.795 L 453.476,245.38 C 453.476,238.636 456.68,228.112 470.748,228.112 L 483.412,228.16 L 483.412,242.279 L 474.211,242.279 C 472.716,242.279 470.589,243.032 470.589,246.237 L 470.589,254.795 L 483.629,254.795 Z M 464.483,202.945 C 427.667,202.945 397.817,232.797 397.817,269.615 C 397.817,306.433 427.667,336.272 464.483,336.272 C 501.301,336.272 531.151,306.433 531.151,269.615 C 531.151,232.797 501.301,202.945 464.483,202.945 Z "/>
	</g>
</svg>