<?xml version="1.0" encoding="UTF-8" standalone="no"?>
<svg version="1.1" xmlns="http://www.w3.org/2000/svg" xmlns:xlink="http://www.w3.org/1999/xlink" width="133.333" height="133.333">
	<g id="dp_dp001" transform="matrix(1,0,0,1,-155.623,-199.419)">
		<path id="dp_path002" fill="#453d3d" fill-rule="evenodd" stroke="none" stroke-width="0" d="M 288.955,266.085 C 288.955,302.907 259.109,332.752 222.289,332.752 C 185.471,332.752 155.623,302.907 155.623,266.085 C 155.623,229.268 185.471,199.419 222.289,199.419 C 259.109,199.419 288.955,229.268 288.955,266.085"/>
		<path id="dp_path003" fill="white" fill-rule="evenodd" stroke="none" stroke-width="0" d="M 255.621,259.419 L 188.955,259.419 L 188.955,256.085 C 188.955,246.88 196.413,239.419 205.621,239.419 L 238.955,239.419 C 248.161,239.419 255.621,246.88 255.621,256.085 Z M 255.621,269.419 L 245.167,269.419 L 251.833,262.752 L 255.621,262.752 Z M 255.621,282.752 L 188.955,282.752 L 188.955,276.085 L 231.768,276.085 L 235.133,279.459 L 238.503,276.085 L 255.621,276.085 Z M 255.621,289.419 C 255.621,291.264 254.131,292.752 252.288,292.752 L 192.288,292.752 C 190.443,292.752 188.955,291.264 188.955,289.419 L 188.955,286.085 L 255.621,286.085 Z M 223.144,262.752 L 247.119,262.752 L 235.131,274.741 Z M 188.955,262.752 L 218.431,262.752 L 225.097,269.419 L 188.955,269.419 Z M 238.955,232.752 L 205.621,232.752 C 192.735,232.752 182.288,243.201 182.288,256.085 L 182.288,289.419 C 182.288,294.943 186.764,299.419 192.288,299.419 L 252.288,299.419 C 257.809,299.419 262.288,294.943 262.288,289.419 L 262.288,256.085 C 262.288,243.201 251.839,232.752 238.955,232.752 Z "/>
		<path id="dp_path004" fill="white" fill-rule="evenodd" stroke="none" stroke-width="0" d="M 235.621,246.085 C 237.461,246.085 238.955,247.58 238.955,249.419 C 238.955,251.261 237.461,252.752 235.621,252.752 C 233.779,252.752 232.288,251.261 232.288,249.419 C 232.288,247.58 233.779,246.085 235.621,246.085"/>
		<path id="dp_path005" fill="white" fill-rule="evenodd" stroke="none" stroke-width="0" d="M 218.955,242.752 C 220.795,242.752 222.288,244.247 222.288,246.085 C 222.288,247.928 220.795,249.419 218.955,249.419 C 217.112,249.419 215.621,247.928 215.621,246.085 C 215.621,244.247 217.112,242.752 218.955,242.752"/>
		<path id="dp_path006" fill="white" fill-rule="evenodd" stroke="none" stroke-width="0" d="M 205.621,246.085 C 207.461,246.085 208.955,247.58 208.955,249.419 C 208.955,251.261 207.461,252.752 205.621,252.752 C 203.779,252.752 202.288,251.261 202.288,249.419 C 202.288,247.58 203.779,246.085 205.621,246.085"/>
	</g>
</svg>