<?xml version="1.0" encoding="UTF-8" standalone="no"?>
<svg version="1.1" xmlns="http://www.w3.org/2000/svg" xmlns:xlink="http://www.w3.org/1999/xlink" width="133.333" height="133.333">
	<g id="dp_dp001" transform="matrix(1,0,0,1,-51.6707,-44)">
		<path id="dp_path002" fill="#453d3d" fill-rule="evenodd" stroke="none" stroke-width="0" d="M 185.004,110.667 C 185.004,147.485 155.156,177.333 118.337,177.333 C 81.5187,177.333 51.6707,147.485 51.6707,110.667 C 51.6707,73.848 81.5187,44 118.337,44 C 155.156,44 185.004,73.848 185.004,110.667"/>
		<path id="dp_path003" fill="none" fill-rule="evenodd" stroke="white" stroke-width="4" stroke-linejoin="round" stroke-linecap="round" d="M 153.339,74.3307 C 153.339,74.3307 129.684,66.9867 113.372,83.2973 C 97.056,99.6107 90.8747,116.271 90.8747,116.271 L 104.4,129.791 L 111.396,136.792 C 111.396,136.792 128.052,130.609 144.363,114.297 C 160.681,97.98 153.339,74.3307 153.339,74.3307 Z "/>
		<path id="dp_path004" fill="none" fill-rule="evenodd" stroke="white" stroke-width="4" stroke-linejoin="round" stroke-linecap="round" d="M 93.0253,111.735 C 89.3613,111.615 81.256,112.152 74.9853,118.424 C 74.9853,118.424 77.2947,108.253 82.9413,102.599 C 88.5867,96.9533 98.3947,98.552 98.3947,98.552"/>
		<path id="dp_path005" fill="none" fill-rule="evenodd" stroke="white" stroke-width="4" stroke-linejoin="round" stroke-linecap="round" d="M 115.973,134.687 C 116.095,138.345 115.556,146.455 109.285,152.723 C 109.285,152.723 119.453,150.416 125.111,144.767 C 130.752,139.121 129.155,129.313 129.155,129.313"/>
		<path id="dp_path006" fill="none" fill-rule="evenodd" stroke="white" stroke-width="4" stroke-linejoin="round" stroke-linecap="round" d="M 138.667,100 C 135.629,103.031 130.704,103.036 127.671,100 C 124.632,96.964 124.632,92.0387 127.665,89.0027 C 130.704,85.9667 135.629,85.964 138.667,89.0027 C 141.7,92.0387 141.7,96.9587 138.667,100 Z "/>
		<path id="dp_path007" fill="none" fill-rule="evenodd" stroke="white" stroke-width="4" stroke-linejoin="round" stroke-linecap="round" d="M 95.7853,140.859 C 93.3053,143.328 83.0053,144.661 83.0053,144.661 C 83.0053,144.661 84.3347,134.361 86.8133,131.881 C 89.2907,129.408 93.3053,129.408 95.7853,131.887 C 98.2587,134.365 98.2587,138.379 95.7853,140.859 Z "/>
	</g>
</svg>