<?xml version="1.0" encoding="UTF-8" standalone="no"?>
<svg version="1.1" xmlns="http://www.w3.org/2000/svg" xmlns:xlink="http://www.w3.org/1999/xlink" width="133.333" height="133.333">
	<g id="dp_dp001" transform="matrix(1,0,0,1,-239.496,-495.263)">
		<path id="dp_path002" fill="#453d3d" fill-rule="evenodd" stroke="none" stroke-width="0" d="M 372.829,561.929 C 372.829,598.749 342.981,628.596 306.163,628.596 C 269.344,628.596 239.496,598.749 239.496,561.929 C 239.496,525.111 269.344,495.263 306.163,495.263 C 342.981,495.263 372.829,525.111 372.829,561.929"/>
		<path id="dp_path003" fill="white" fill-rule="evenodd" stroke="none" stroke-width="0" d="M 346.901,566 C 346.336,567.128 344.036,567.519 343.083,567.519 L 340.087,567.519 L 344.124,550.159 L 346.553,550.159 C 348.028,550.159 350.025,552.156 350.025,553.631 C 350.025,556.495 348.376,562.961 346.901,566M 322.208,589.26 C 317.391,593.252 311.576,595.293 304.892,595.293 C 298.209,595.293 292.393,593.252 287.577,589.26 C 283.453,585.831 279.94,580.841 277.161,574.505 C 272.084,562.961 270.695,549.941 270.348,543.216 L 339.524,543.216 C 339.133,549.941 337.744,563.005 332.709,574.548 C 329.889,580.841 326.373,585.831 322.208,589.26M 346.553,546.688 L 342.735,546.688 C 342.821,545.472 342.909,544.344 342.952,543.389 C 343.083,541.393 341.475,539.745 339.479,539.745 L 270.305,539.745 C 268.308,539.745 266.747,541.437 266.833,543.389 C 267.571,556.279 272.388,598.763 304.892,598.763 C 323.293,598.763 332.84,585.137 337.744,570.989 L 343.083,570.989 C 343.255,570.989 348.332,570.947 350.025,567.519 C 351.717,564.004 353.496,557.06 353.496,553.631 C 353.496,550.203 349.939,546.688 346.553,546.688"/>
		<path id="dp_path004" fill="white" fill-rule="evenodd" stroke="none" stroke-width="0" d="M 333.839,546.688 L 275.945,546.688 C 274.904,546.688 274.124,547.599 274.211,548.597 C 274.948,555.107 276.555,564.653 280.287,573.116 C 285.797,585.701 293.827,591.821 304.849,591.821 C 315.872,591.821 323.9,585.701 329.412,573.116 C 333.144,564.653 334.751,555.107 335.487,548.597 C 335.661,547.599 334.837,546.688 333.839,546.688"/>
		<path id="dp_path005" fill="white" fill-rule="evenodd" stroke="none" stroke-width="0" d="M 299.685,531.932 C 299.685,532.02 299.685,532.149 299.728,532.236 C 299.772,532.453 299.772,532.671 299.815,532.888 C 299.901,533.279 299.988,533.625 300.076,533.972 C 300.292,534.623 300.509,535.143 300.683,535.491 C 300.769,535.665 300.856,535.795 300.9,535.881 C 300.943,535.969 300.987,536.012 300.987,536.012 C 301.073,536.141 301.247,536.272 301.42,536.228 C 301.637,536.187 301.811,535.969 301.768,535.708 L 301.768,535.665 C 301.768,535.665 301.724,535.448 301.681,535.1 C 301.637,534.753 301.551,534.232 301.464,533.625 C 301.42,533.321 301.377,533.017 301.377,532.671 L 301.377,532.193 L 301.377,531.889 L 301.377,531.803 L 301.377,531.757 L 301.377,531.673 C 301.42,531.412 301.508,531.195 301.681,530.935 C 301.855,530.675 302.115,530.415 302.419,529.98 C 302.549,529.761 302.723,529.545 302.853,529.243 C 302.896,529.112 302.94,528.981 302.983,528.808 C 303.027,528.677 303.069,528.505 303.069,528.373 C 303.069,528.287 303.113,528.2 303.113,528.156 L 303.113,527.983 L 303.113,527.809 L 303.113,527.765 L 303.113,527.724 L 303.113,527.637 C 303.113,527.419 303.069,527.203 303.027,526.984 C 302.896,526.117 302.723,525.379 302.549,524.772 C 302.375,524.121 302.159,523.644 302.028,523.253 C 301.897,522.905 301.811,522.689 301.811,522.689 C 301.724,522.515 301.551,522.429 301.377,522.429 C 301.117,522.472 300.987,522.689 300.987,522.905 C 300.987,522.905 301.029,523.124 301.073,523.471 C 301.117,523.817 301.16,524.381 301.247,524.988 C 301.333,525.596 301.377,526.335 301.42,527.072 L 301.42,527.637 C 301.42,527.68 301.377,528.071 301.377,528.115 C 301.333,528.2 301.291,528.331 301.247,528.461 C 301.203,528.591 301.117,528.721 301.029,528.852 C 300.813,529.112 300.509,529.459 300.205,529.893 C 299.901,530.369 299.728,530.977 299.728,531.499 L 299.728,531.716 L 299.728,531.845 Z "/>
		<path id="dp_path006" fill="white" fill-rule="evenodd" stroke="none" stroke-width="0" d="M 303.156,531.845 L 303.156,531.932 C 303.156,532.02 303.156,532.149 303.2,532.236 C 303.244,532.453 303.244,532.671 303.287,532.888 C 303.373,533.279 303.46,533.625 303.547,533.972 C 303.764,534.623 303.98,535.143 304.155,535.491 C 304.241,535.665 304.328,535.795 304.371,535.881 C 304.415,535.969 304.459,536.012 304.459,536.012 C 304.545,536.141 304.719,536.272 304.892,536.228 C 305.109,536.187 305.283,535.969 305.24,535.708 L 305.24,535.665 C 305.24,535.665 305.196,535.448 305.153,535.1 C 305.109,534.753 305.023,534.232 304.936,533.625 C 304.892,533.321 304.849,533.017 304.849,532.671 L 304.849,532.193 L 304.849,531.889 L 304.849,531.803 L 304.849,531.757 L 304.849,531.673 C 304.892,531.412 304.979,531.195 305.153,530.935 C 305.327,530.675 305.587,530.415 305.891,529.98 C 306.02,529.761 306.195,529.545 306.324,529.243 C 306.367,529.112 306.411,528.981 306.455,528.808 C 306.499,528.677 306.541,528.505 306.541,528.373 C 306.541,528.287 306.584,528.2 306.584,528.156 L 306.584,527.983 L 306.584,527.809 L 306.584,527.765 L 306.584,527.724 L 306.584,527.637 C 306.584,527.419 306.541,527.203 306.499,526.984 C 306.367,526.117 306.195,525.379 306.02,524.772 C 305.847,524.121 305.631,523.644 305.5,523.253 C 305.369,522.905 305.283,522.689 305.283,522.689 C 305.196,522.515 305.023,522.429 304.849,522.429 C 304.588,522.472 304.459,522.689 304.459,522.905 C 304.459,522.905 304.501,523.124 304.545,523.471 C 304.588,523.817 304.632,524.381 304.719,524.988 C 304.805,525.596 304.849,526.335 304.892,527.072 L 304.892,527.637 C 304.892,527.68 304.849,528.071 304.849,528.115 C 304.805,528.2 304.761,528.331 304.719,528.461 C 304.675,528.591 304.588,528.721 304.501,528.852 C 304.284,529.112 303.98,529.459 303.677,529.893 C 303.373,530.369 303.2,530.977 303.2,531.499 L 303.2,531.716 C 303.156,531.803 303.156,531.803 303.156,531.845"/>
		<path id="dp_path007" fill="white" fill-rule="evenodd" stroke="none" stroke-width="0" d="M 306.628,531.845 L 306.628,531.932 C 306.628,532.02 306.628,532.149 306.672,532.236 C 306.715,532.453 306.715,532.671 306.759,532.888 C 306.845,533.279 306.932,533.625 307.019,533.972 C 307.236,534.623 307.452,535.143 307.627,535.491 C 307.713,535.665 307.8,535.795 307.843,535.881 C 307.887,535.969 307.931,536.012 307.931,536.012 C 308.017,536.141 308.191,536.272 308.364,536.228 C 308.581,536.187 308.755,535.969 308.712,535.708 L 308.712,535.665 C 308.712,535.665 308.668,535.448 308.624,535.1 C 308.581,534.753 308.495,534.232 308.407,533.625 C 308.364,533.321 308.321,533.017 308.321,532.671 L 308.321,532.193 L 308.321,531.889 L 308.321,531.803 L 308.321,531.757 L 308.321,531.673 C 308.364,531.412 308.451,531.195 308.624,530.935 C 308.797,530.675 309.059,530.415 309.363,529.98 C 309.492,529.761 309.667,529.545 309.796,529.243 C 309.839,529.112 309.883,528.981 309.927,528.808 C 309.971,528.677 310.013,528.505 310.013,528.373 C 310.013,528.287 310.056,528.2 310.056,528.156 L 310.056,527.983 L 310.056,527.809 L 310.056,527.765 L 310.056,527.724 L 310.056,527.637 C 310.056,527.419 310.013,527.203 309.971,526.984 C 309.839,526.117 309.667,525.379 309.492,524.772 C 309.319,524.121 309.101,523.644 308.972,523.253 C 308.841,522.905 308.755,522.689 308.755,522.689 C 308.668,522.515 308.495,522.429 308.321,522.429 C 308.06,522.472 307.931,522.689 307.931,522.905 C 307.931,522.905 307.973,523.124 308.017,523.471 C 308.06,523.817 308.104,524.381 308.191,524.988 C 308.277,525.596 308.321,526.335 308.364,527.072 L 308.364,527.637 C 308.364,527.68 308.321,528.071 308.321,528.115 C 308.277,528.2 308.233,528.331 308.191,528.461 C 308.147,528.591 308.06,528.721 307.973,528.852 C 307.756,529.112 307.452,529.459 307.149,529.893 C 306.845,530.369 306.672,530.977 306.672,531.499 L 306.672,531.716 C 306.628,531.803 306.628,531.803 306.628,531.845"/>
	</g>
</svg>