<?xml version="1.0" encoding="UTF-8" standalone="no"?>
<svg version="1.1" xmlns="http://www.w3.org/2000/svg" xmlns:xlink="http://www.w3.org/1999/xlink" width="133.333" height="133.333">
	<g id="dp_dp001" transform="matrix(1,0,0,1,-478.956,-32.0853)">
		<path id="dp_path002" fill="#453d3d" fill-rule="evenodd" stroke="none" stroke-width="0" d="M 612.288,98.752 C 612.288,135.573 582.441,165.419 545.623,165.419 C 508.803,165.419 478.956,135.573 478.956,98.752 C 478.956,61.9347 508.803,32.0853 545.623,32.0853 C 582.441,32.0853 612.288,61.9347 612.288,98.752"/>
		<path id="dp_path003" fill="white" fill-rule="evenodd" stroke="none" stroke-width="0" d="M 568.956,92.0853 C 568.956,82.0853 565.069,74.228 558.825,68.1667 C 568.689,72.4307 576.091,82.0853 578.285,92.0853 Z M 555.623,92.0853 C 555.623,82.0853 553.385,73.6387 549.457,65.66 C 549.593,65.68 549.731,65.6987 549.867,65.7213 C 559.243,70.7867 565.623,78.752 565.623,92.0853 Z M 538.956,92.0853 C 538.956,82.0853 541.377,73.384 545.623,65.4387 C 549.864,73.384 552.289,82.0853 552.289,92.0853 Z M 525.623,92.0853 C 525.623,78.752 531.996,70.784 541.375,65.7213 C 541.511,65.6987 541.648,65.68 541.784,65.66 C 537.856,73.6387 535.623,82.0853 535.623,92.0853 Z M 512.956,92.0853 C 515.147,82.0853 522.556,72.4333 532.419,68.1667 C 526.176,74.224 522.289,82.0853 522.289,92.0853 Z M 545.623,58.752 C 523.532,58.752 505.623,75.4187 505.623,98.752 L 512.289,98.752 L 542.289,98.752 L 542.289,128.752 C 542.289,130.599 540.799,132.085 538.956,132.085 C 537.109,132.085 535.623,130.599 535.623,128.752 C 535.623,126.911 534.132,125.419 532.289,125.419 C 530.443,125.419 528.956,126.911 528.956,128.752 C 528.956,134.273 533.435,138.752 538.956,138.752 C 544.479,138.752 548.956,134.273 548.956,128.752 L 548.956,98.752 L 578.956,98.752 L 585.623,98.752 C 585.623,75.4187 567.712,58.752 545.623,58.752 Z "/>
	</g>
</svg>